<?xml version="1.0" standalone="no"?>
<!DOCTYPE svg PUBLIC "-//W3C//DTD SVG 20010904//EN"
 "http://www.w3.org/TR/2001/REC-SVG-20010904/DTD/svg10.dtd">
<svg version="1.0" xmlns="http://www.w3.org/2000/svg"
 width="1469.000000pt" height="1469.000000pt" viewBox="0 0 1469.000000 1469.000000"
 preserveAspectRatio="xMidYMid meet">
<metadata>
Created by potrace 1.11, written by Peter Selinger 2001-2013
</metadata>
<g transform="translate(0.000000,1469.000000) scale(0.100000,-0.100000)"
fill="#000000" stroke="none">
<path d="M145 14508 c-3 -7 -4 -3239 -3 -7183 l3 -7170 7183 -3 7182 -2 -2
7182 -3 7183 -7178 3 c-5737 2 -7179 0 -7182 -10z m10296 -1119 c213 -18 384
-70 669 -206 244 -116 379 -145 435 -93 38 35 47 55 65 140 l16 75 95 0 94 0
-2 -90 c-1 -49 -3 -390 -4 -757 l-3 -668 -97 0 -96 0 -7 73 c-7 75 -51 260
-84 358 -105 303 -321 590 -569 756 -229 153 -489 218 -774 193 -268 -23 -456
-103 -631 -268 -180 -170 -266 -366 -275 -631 -8 -204 19 -347 93 -495 63
-126 126 -198 284 -328 187 -152 364 -256 883 -517 496 -249 642 -334 897
-527 143 -108 298 -276 393 -426 153 -241 216 -541 195 -930 -33 -625 -420
-1141 -1008 -1341 -138 -47 -224 -64 -402 -77 -235 -18 -449 6 -646 74 -127
44 -354 144 -546 241 -480 244 -582 232 -664 -75 -11 -41 -23 -94 -27 -117
l-7 -43 -100 0 -100 0 6 138 c3 75 11 263 16 417 6 154 13 293 15 309 3 16 1
178 -5 360 -5 182 -12 418 -15 524 l-5 192 100 0 c72 0 102 -4 104 -12 2 -7
29 -118 60 -245 58 -242 101 -363 187 -534 104 -209 216 -364 379 -529 317
-322 687 -479 1127 -480 196 0 433 74 587 184 82 58 194 179 250 269 50 80 99
215 117 322 15 90 15 347 0 451 -36 256 -169 494 -375 674 -262 229 -545 400
-1104 666 -444 212 -689 371 -902 584 -210 210 -326 444 -369 745 -14 91 -14
361 -1 445 47 299 173 551 382 761 251 251 615 410 1005 438 173 12 216 12
364 0z m-6686 -94 c176 0 510 4 743 8 l423 9 -3 -99 -3 -98 -83 -7 c-109 -9
-374 -54 -437 -75 -162 -52 -227 -122 -269 -293 -41 -168 -41 -185 -41 -2235
0 -2081 0 -2084 46 -2262 24 -94 71 -176 123 -214 79 -59 234 -99 496 -129 91
-11 166 -20 168 -20 6 0 1 -189 -5 -193 -5 -2 -268 1 -587 8 -440 8 -716 8
-1155 0 -317 -7 -579 -10 -583 -8 -5 2 -8 46 -8 98 l0 94 43 5 c23 4 101 13
174 21 233 26 391 73 470 139 81 68 129 237 143 506 13 231 12 3760 0 3931
-16 227 -44 341 -106 431 -58 84 -161 124 -426 168 -101 16 -202 30 -225 30
-72 0 -73 1 -73 107 l0 95 428 -9 c235 -4 571 -8 747 -8z m2885 0 c179 0 515
4 748 8 l422 9 0 -96 c0 -109 9 -100 -110 -110 -128 -11 -376 -59 -456 -88
-98 -35 -149 -80 -193 -170 -41 -84 -60 -200 -71 -443 -13 -268 -12 -3562 0
-3824 20 -401 76 -533 257 -601 83 -31 260 -66 403 -81 180 -17 170 -11 170
-118 0 -49 -3 -92 -7 -94 -5 -2 -268 1 -585 7 -440 9 -716 9 -1155 0 -318 -6
-581 -9 -585 -7 -5 2 -8 46 -8 98 l0 94 43 5 c23 4 101 13 172 21 221 24 376
68 458 128 74 55 129 198 146 377 15 154 15 4008 1 4170 -12 126 -21 171 -52
244 -47 115 -96 159 -218 201 -79 27 -333 72 -465 83 l-80 7 -3 98 -3 99 423
-9 c233 -4 569 -8 748 -8z m4350 -7470 c0 -718 3 -1305 6 -1305 4 0 40 31 80
70 223 212 493 350 774 395 120 19 341 19 468 0 417 -62 774 -301 1037 -695
316 -473 410 -1121 246 -1701 -153 -542 -552 -986 -1041 -1158 -212 -75 -476
-99 -713 -65 -261 37 -541 169 -771 363 l-95 81 -206 -230 -206 -230 -64 0
-65 0 -3 2538 c-3 2365 -4 2542 -20 2607 -36 147 -102 234 -215 288 -95 45
-194 67 -329 74 l-123 6 0 89 0 88 124 0 c244 0 826 46 1016 79 25 5 57 9 73
10 l27 1 0 -1305z m-8685 1200 c325 0 695 4 823 8 l232 8 0 -89 0 -90 -52 -7
c-339 -43 -441 -72 -516 -146 -57 -56 -86 -131 -109 -289 -14 -92 -17 -318
-20 -1800 -4 -1646 1 -2081 27 -2315 25 -222 65 -338 149 -429 160 -172 371
-216 1031 -216 530 0 745 28 965 125 266 118 468 373 578 730 39 127 76 304
88 422 16 157 12 153 109 153 l80 0 0 -32 c0 -18 -7 -175 -15 -348 -8 -173
-22 -468 -30 -655 -27 -579 -31 -634 -37 -640 -4 -4 -537 -2 -1185 4 -1527 14
-2320 15 -2832 1 -251 -7 -417 -8 -423 -2 -5 5 -8 49 -6 98 l3 89 50 7 c28 4
122 16 210 28 176 24 307 58 372 96 117 68 172 210 193 499 13 175 13 3796 0
3982 -21 310 -82 453 -217 513 -94 42 -313 86 -533 108 l-75 7 -3 98 -3 98
278 -8 c153 -4 544 -8 868 -8z m5765 -2039 c462 -62 728 -262 848 -638 75
-233 82 -345 82 -1357 0 -460 5 -879 10 -932 22 -225 62 -340 139 -394 40 -28
49 -30 134 -30 82 0 97 3 139 28 52 30 133 122 155 177 25 60 27 60 99 32 64
-25 66 -27 60 -57 -10 -47 -70 -168 -114 -228 -109 -147 -269 -222 -495 -234
-112 -6 -209 5 -302 34 -200 63 -317 255 -358 587 l-12 100 -65 -90 c-250
-344 -592 -554 -1000 -615 -386 -57 -713 26 -920 234 -67 67 -113 142 -147
239 -34 96 -44 296 -19 400 44 188 163 355 374 526 402 324 809 546 1547 843
l220 89 -1 207 c-1 236 -14 348 -55 478 -55 175 -141 279 -285 346 -111 53
-227 72 -429 72 -338 -1 -568 -73 -603 -191 -18 -60 -15 -100 20 -218 71 -244
27 -396 -138 -478 -68 -34 -179 -51 -244 -37 -73 16 -119 42 -172 99 -71 76
-90 121 -96 229 -15 296 138 493 507 648 129 54 343 105 541 130 144 17 451
18 580 1z"/>
<path d="M11843 4759 c-105 -16 -250 -56 -315 -88 -151 -73 -303 -185 -444
-329 l-94 -96 0 -1061 0 -1061 44 -60 c95 -131 334 -316 502 -387 159 -68 236
-82 449 -81 177 0 196 2 278 27 160 49 269 118 385 242 148 159 251 355 316
605 132 504 110 1135 -56 1590 -130 358 -368 603 -655 676 -112 28 -307 39
-410 23z"/>
<path d="M8290 3471 c-325 -152 -492 -244 -682 -373 -349 -239 -566 -470 -655
-698 -30 -77 -41 -131 -49 -235 -23 -325 172 -525 513 -525 343 1 726 239 941
586 100 161 92 98 92 745 0 313 -3 569 -7 569 -5 0 -73 -31 -153 -69z"/>
</g>
</svg>
